<svg fill="currentColor" viewBox="0 0 36 36" width="1em" height="1em" class="a8c37x1j ms05siws l3qrxjdp b7h9ocf4 rs22bh7c rgmg9uty b73ngqbp"><path d="M20 6a1 1 0 0 1 1 1v3a4 4 0 0 0 4 4h3a1 1 0 0 1 1 1v6.882c0 1.17-.895 2.118-2 2.118H17c-1.105 0-2-.948-2-2.118V8.118C15 6.948 15.895 6 17 6h3z"></path><path d="M9 30a2 2 0 0 1-2-2V14a2 2 0 0 1 2-2h3a1 1 0 0 1 1 1v9a4 4 0 0 0 4 4h3a1 1 0 0 1 1 1v1a2 2 0 0 1-2 2H9zM28.151 12H25a2 2 0 0 1-2-2V6.849a.849.849 0 0 1 1.448-.6l4.303 4.303a.848.848 0 0 1-.6 1.448z"></path></svg>