<svg xmlns:xlink="http://www.w3.org/1999/xlink" xmlns="http://www.w3.org/2000/svg" viewBox="0 0 36 36" class="a8c37x1j ms05siws l3qrxjdp b7h9ocf4 rs22bh7c" fill="currentColor" height="24" width="24"><path d="M22.278 25.778a3.5 3.5 0 107 0 3.5 3.5 0 00-7 0z" fill="#050505"></path><path d="M28.734 20.414c-.071.32-.435.463-.735.331A5.5 5.5 0 0020.745 28c.133.3-.011.664-.33.735-.778.174-1.586.266-2.415.266-6.075 0-11-4.925-11-11S11.925 7 18 7s11 4.925 11 11c0 .83-.092 1.637-.266 2.414z" fill="#050505"></path></svg>