<svg fill="currentColor" viewBox="0 0 36 36" width="1em" height="1em" class="a8c37x1j ms05siws l3qrxjdp b7h9ocf4 rs22bh7c k7cz35w2 bsnbvmp4"><path d="M4.865 18.073c-.522 1.043-.396 2.26-.146 3.4a2.12 2.12 0 0 0 1.547 1.602c.403.099.812.175 1.234.175 1.276 0 2.505-.2 3.659-.568.642-.205 1.085-.775 1.206-1.438l.472-2.599a.488.488 0 0 1 .28-.36A11.959 11.959 0 0 1 18 17.25c1.739 0 3.392.37 4.883 1.035.148.066.251.202.28.36l.472 2.599c.12.663.564 1.233 1.206 1.438 1.154.369 2.383.568 3.66.568.421 0 .83-.077 1.233-.175a2.12 2.12 0 0 0 1.547-1.601c.25-1.14.377-2.358-.146-3.401-1.722-3.44-7.06-5.323-13.135-5.323S6.587 14.633 4.865 18.073z"></path></svg>