<svg xmlns:xlink="http://www.w3.org/1999/xlink" xmlns="http://www.w3.org/2000/svg" viewBox="0 0 36 36" class="a8c37x1j ms05siws l3qrxjdp b7h9ocf4" fill="currentColor" height="28" width="28"><path clip-rule="evenodd" d="M5 13.5a4 4 0 014-4h10a4 4 0 014 4v9a4 4 0 01-4 4H9a4 4 0 01-4-4v-9zm8 0a1 1 0 112 0v3.25c0 .138.112.25.25.25h3.25a1 1 0 110 2h-3.25a.25.25 0 00-.25.25v3.25a1 1 0 11-2 0v-3.25a.25.25 0 00-.25-.25H9.5a1 1 0 110-2h3.25a.25.25 0 00.25-.25V13.5z" fill-rule="evenodd" fill="#1C1E21"></path><path d="M29.552 23.393l-3.723-1.861A1.5 1.5 0 0125 20.19v-4.38a1.5 1.5 0 01.829-1.342l3.723-1.861A1 1 0 0131 13.5v9a1 1 0 01-1.448.894z" fill="#1C1E21"></path></svg>