<?xml version="1.0" standalone="no"?><!DOCTYPE svg PUBLIC "-//W3C//DTD SVG 1.1//EN" "http://www.w3.org/Graphics/SVG/1.1/DTD/svg11.dtd"><svg t="1629608630597" class="icon" viewBox="0 0 1024 1024" version="1.1" xmlns="http://www.w3.org/2000/svg" p-id="5052" xmlns:xlink="http://www.w3.org/1999/xlink" width="200" height="200"><defs><style type="text/css"></style></defs><path d="M512 85.333333a416.426667 416.426667 0 0 0-426.666667 405.333334A393.386667 393.386667 0 0 0 200.96 768a42.666667 42.666667 0 0 1 12.373333 29.866667V896a42.666667 42.666667 0 0 0 19.2 35.84 42.666667 42.666667 0 0 0 40.106667 3.84l115.626667-48.64a42.666667 42.666667 0 0 1 26.026666-2.133333A434.346667 434.346667 0 0 0 512 896a416.426667 416.426667 0 0 0 426.666667-405.333333A416.426667 416.426667 0 0 0 512 85.333333z m234.666667 307.626667l-111.786667 170.666667a63.573333 63.573333 0 0 1-53.333333 29.013333h-18.346667a63.573333 63.573333 0 0 1-38.826667-13.226667l-93.44-72.106666-128 96a18.346667 18.346667 0 0 1-23.893333 0 21.333333 21.333333 0 0 1-2.986667-26.88L388.266667 407.04a64.426667 64.426667 0 0 1 53.76-28.586667h8.96a63.146667 63.146667 0 0 1 38.826666 12.8l98.133334 75.093334 130.56-99.84a18.346667 18.346667 0 0 1 23.893333 0 18.346667 18.346667 0 0 1 4.266667 26.453333z" p-id="5053" fill="#0084FF"></path></svg>