<?xml version="1.0" standalone="no"?><!DOCTYPE svg PUBLIC "-//W3C//DTD SVG 1.1//EN" "http://www.w3.org/Graphics/SVG/1.1/DTD/svg11.dtd"><svg t="1629621832891" class="icon" viewBox="0 0 1024 1024" version="1.1" xmlns="http://www.w3.org/2000/svg" p-id="3791" xmlns:xlink="http://www.w3.org/1999/xlink" width="200" height="200"><defs><style type="text/css"></style></defs><path d="M520.3904 833.7472c-178.9568 0-324.544-145.5872-324.544-324.544s145.5872-324.544 324.544-324.544c178.9632 0 324.544 145.5936 324.544 324.544 0 178.9568-145.5808 324.544-324.544 324.544z m0-587.7568c-145.1328 0-263.2128 118.0736-263.2128 263.2128 0 145.152 118.08 263.2128 263.2128 263.2128 145.1392 0 263.2192-118.0672 263.2192-263.2128 0-145.1392-118.08-263.2128-263.2192-263.2128zM534.3808 1024c-16.992 0-30.7712-13.5424-30.7712-30.2144v-90.6496c0-16.704 13.7792-30.2208 30.7712-30.2208 16.9984 0 30.7776 13.5168 30.7776 30.2208v90.6496c0 16.672-13.7792 30.2144-30.7776 30.2144zM534.3808 151.0848c-16.992 0-30.7712-13.5296-30.7712-30.2208V30.2144C503.6096 13.5296 517.3888 0 534.3808 0c16.9984 0 30.7776 13.5296 30.7776 30.2144v90.6496c0 16.6912-13.7792 30.2208-30.7776 30.2208zM176.7168 884.1088a31.2192 31.2192 0 0 1-22.08-53.312l66.24-66.24a31.2192 31.2192 0 0 1 44.16 0 31.2192 31.2192 0 0 1 0 44.16l-66.24 66.24a31.1232 31.1232 0 0 1-22.08 9.152z" p-id="3792"></path><path d="M797.8304 268.5888a31.2192 31.2192 0 0 1-22.08-53.312l66.24-66.24a31.2192 31.2192 0 0 1 44.16 0 31.2192 31.2192 0 0 1 0 44.16l-66.24 66.24a31.1296 31.1296 0 0 1-22.08 9.152zM242.9568 268.5888a31.1296 31.1296 0 0 1-22.08-9.152l-66.24-66.24a31.2192 31.2192 0 0 1 0-44.16 31.2192 31.2192 0 0 1 44.16 0l66.24 66.24a31.2192 31.2192 0 0 1-22.08 53.312zM864.0704 884.1088a31.1296 31.1296 0 0 1-22.08-9.152l-66.24-66.2464a31.2256 31.2256 0 0 1 44.16-44.1536l66.24 66.2528a31.2064 31.2064 0 0 1-22.08 53.2992zM120.864 553.9648H30.2144C13.5296 553.9648 0 540.1856 0 523.2c0-16.9984 13.5296-30.784 30.2144-30.784h90.6496c16.6912 0 30.2208 13.7856 30.2208 30.784 0 16.992-13.536 30.7712-30.2208 30.7712zM993.7856 553.9648h-90.6496c-16.6912 0-30.2208-13.7792-30.2208-30.7712 0-16.9984 13.5296-30.784 30.2208-30.784h90.6496c16.6848 0 30.2144 13.7856 30.2144 30.784 0 16.992-13.5296 30.7712-30.2144 30.7712z" p-id="3793"></path></svg>